<?xml version="1.0" standalone="no"?>
<!DOCTYPE svg PUBLIC "-//W3C//DTD SVG 20010904//EN"
 "http://www.w3.org/TR/2001/REC-SVG-20010904/DTD/svg10.dtd">
<svg version="1.0" xmlns="http://www.w3.org/2000/svg"
 width="1604.000000pt" height="1604.000000pt" viewBox="0 0 1604.000000 1604.000000"
 preserveAspectRatio="xMidYMid meet">
<metadata>
Created by potrace 1.14, written by Peter Selinger 2001-2017
</metadata>
<g transform="translate(0.000000,1604.000000) scale(0.100000,-0.100000)"
fill="#000000" stroke="none">
<path d="M3968 12235 c-2 -2 -43 -6 -93 -9 -49 -4 -115 -9 -145 -12 -30 -4
-63 -7 -72 -7 -10 -1 -18 -4 -18 -7 0 -3 -14 -5 -32 -4 -18 0 -48 -3 -68 -7
-19 -5 -60 -11 -90 -15 -30 -3 -59 -9 -65 -12 -5 -3 -16 -7 -25 -8 -36 -3 -90
-15 -165 -34 -115 -30 -118 -31 -140 -35 -42 -9 -276 -85 -298 -96 -12 -7 -23
-12 -24 -11 -6 3 -162 -57 -248 -96 -107 -48 -312 -151 -400 -202 -86 -50
-275 -169 -285 -180 -3 -3 -18 -14 -35 -24 -16 -11 -34 -23 -40 -28 -5 -4 -44
-34 -86 -66 -72 -55 -115 -89 -217 -177 -59 -50 -360 -352 -389 -391 -12 -16
-40 -49 -62 -74 -22 -25 -43 -53 -46 -62 -4 -10 -10 -18 -14 -18 -5 0 -21 -19
-37 -42 -16 -24 -32 -45 -35 -48 -5 -4 -48 -66 -120 -170 -40 -59 -109 -169
-109 -175 0 -4 -8 -19 -19 -33 -16 -24 -49 -82 -130 -237 -12 -22 -21 -45 -21
-51 0 -6 -7 -17 -15 -24 -8 -6 -14 -15 -13 -18 2 -9 -6 -27 -87 -207 -7 -16
-17 -42 -20 -58 -4 -15 -11 -30 -16 -33 -5 -3 -9 -15 -9 -28 0 -12 -3 -26 -8
-30 -4 -4 -7 -11 -8 -14 0 -4 -4 -16 -8 -27 -4 -11 -12 -31 -16 -45 -4 -14
-11 -34 -16 -45 -15 -41 -103 -360 -110 -400 -3 -16 -11 -58 -19 -93 -8 -34
-14 -66 -14 -70 1 -4 0 -9 -1 -12 -3 -9 -8 -35 -20 -115 -6 -44 -13 -91 -16
-105 -9 -53 -18 -135 -30 -300 -16 -203 -8 -700 12 -805 4 -16 6 -37 6 -45 0
-13 22 -161 34 -227 9 -50 13 -69 18 -88 2 -11 11 -51 20 -90 8 -38 25 -101
36 -140 11 -38 23 -83 26 -100 3 -16 10 -34 15 -39 5 -6 9 -20 9 -31 0 -12 3
-25 8 -29 4 -4 8 -12 8 -17 1 -5 3 -11 4 -14 1 -3 3 -8 4 -12 5 -23 19 -62 32
-91 9 -18 17 -40 19 -50 5 -23 53 -134 126 -289 22 -46 39 -87 39 -93 0 -5 3
-10 8 -10 4 0 14 -15 21 -32 18 -41 132 -241 141 -248 4 -3 15 -18 24 -35 22
-39 42 -71 91 -140 22 -32 50 -71 61 -89 12 -17 29 -37 38 -45 9 -7 16 -17 16
-22 0 -5 8 -17 18 -28 9 -10 31 -35 47 -56 17 -22 44 -55 61 -74 17 -20 42
-49 55 -66 56 -69 342 -349 439 -430 146 -121 237 -193 281 -220 9 -5 64 -43
122 -82 59 -40 111 -73 117 -73 5 0 10 -4 10 -10 0 -5 5 -10 11 -10 6 0 23 -8
37 -19 122 -85 657 -339 772 -367 3 0 12 -3 20 -7 17 -7 170 -58 185 -62 6 -1
17 -5 25 -8 8 -3 35 -10 60 -16 25 -7 86 -22 135 -35 50 -13 104 -26 120 -29
17 -3 37 -8 45 -11 8 -3 33 -8 55 -12 47 -7 71 -11 105 -18 58 -11 221 -34
295 -41 155 -16 227 -19 475 -19 157 -1 328 3 380 7 161 13 204 17 235 22 57
9 108 17 134 20 14 2 26 4 26 5 0 1 9 3 20 4 44 6 101 17 117 22 9 3 27 7 40
9 23 5 56 12 93 20 40 9 140 36 155 42 18 8 17 7 58 17 18 4 45 14 60 22 15 8
32 14 39 14 6 0 24 5 40 12 15 6 33 12 38 14 6 1 24 8 40 15 17 7 32 13 35 14
3 1 19 7 35 15 17 7 64 28 105 47 41 18 82 37 90 43 8 5 30 16 47 24 76 34
375 215 432 261 50 41 112 85 120 85 5 0 11 3 13 8 2 4 25 25 53 47 27 22 55
45 61 50 6 6 35 30 64 55 137 115 367 340 500 489 41 46 80 89 85 95 17 17
217 260 250 302 46 59 158 207 180 239 11 15 28 36 37 47 10 10 15 18 10 18
-4 0 -2 4 4 8 6 4 32 38 58 75 25 37 68 98 94 135 27 37 51 75 55 85 3 9 11
17 17 17 5 0 10 4 10 9 0 10 58 101 70 111 4 3 22 31 41 63 18 31 37 57 41 57
5 0 8 6 8 13 0 7 13 31 30 53 16 21 30 44 30 51 0 6 3 13 8 15 10 4 222 347
222 359 0 5 4 9 9 9 5 0 12 8 15 18 3 9 12 26 19 37 6 11 49 83 95 160 46 77
87 147 92 155 5 8 39 67 76 130 37 63 71 117 76 118 4 2 8 8 8 14 0 10 129
227 141 238 3 3 20 30 38 60 17 30 54 89 81 130 27 41 53 81 57 89 3 8 26 44
50 80 24 36 48 73 53 81 6 8 56 83 112 165 90 133 118 173 172 250 29 40 147
200 159 215 6 9 34 45 62 80 61 79 60 79 86 110 11 14 33 40 47 59 15 19 36
44 47 57 11 12 29 33 39 46 140 170 438 467 572 570 16 12 31 25 34 28 3 3 21
17 40 30 19 13 37 27 40 30 3 3 32 23 65 44 33 22 72 48 87 58 70 47 317 160
378 173 8 2 15 4 15 5 0 1 7 3 15 5 53 13 73 17 140 31 98 21 311 24 419 7
155 -24 324 -76 459 -141 34 -17 62 -28 62 -25 0 3 7 0 15 -7 9 -7 35 -23 58
-35 135 -69 304 -184 511 -345 10 -8 26 -22 35 -30 9 -8 41 -35 71 -60 66 -54
251 -237 302 -300 21 -25 54 -65 73 -89 37 -46 165 -235 165 -245 0 -3 13 -27
28 -53 80 -138 174 -403 197 -558 2 -16 6 -40 9 -53 18 -83 23 -294 12 -435
-6 -64 -9 -88 -21 -147 -3 -14 -8 -41 -11 -60 -3 -19 -15 -66 -27 -105 -12
-38 -21 -74 -21 -80 -1 -5 -20 -57 -44 -115 -24 -58 -44 -110 -46 -116 -1 -7
-8 -19 -15 -28 -7 -9 -10 -16 -6 -16 5 0 2 -8 -6 -17 -8 -10 -19 -27 -25 -38
-45 -83 -69 -123 -120 -199 -31 -47 -61 -86 -66 -86 -4 0 -8 -5 -8 -11 0 -29
-246 -294 -365 -394 -33 -27 -62 -52 -65 -55 -24 -24 -101 -80 -109 -80 -6 0
-11 -3 -11 -8 0 -4 -16 -16 -35 -26 -19 -11 -35 -23 -35 -28 0 -4 -5 -8 -11
-8 -6 0 -29 -13 -52 -28 -57 -38 -311 -161 -342 -166 -5 -1 -14 -4 -20 -7 -11
-7 -104 -38 -120 -41 -5 0 -25 -7 -43 -15 -17 -7 -32 -11 -32 -9 0 3 -18 -1
-40 -9 -22 -8 -42 -14 -45 -15 -3 0 -6 0 -7 -1 -2 0 -12 -2 -23 -3 -11 -2 -63
-10 -115 -19 -52 -9 -122 -19 -155 -22 -72 -7 -313 -7 -370 -1 -48 6 -114 15
-135 20 -8 1 -37 6 -65 10 -27 5 -74 15 -102 23 -29 8 -56 15 -60 15 -13 1
-143 47 -187 65 -68 29 -218 107 -265 139 -24 16 -51 34 -60 39 -9 6 -18 12
-21 15 -3 3 -23 18 -45 34 -64 48 -250 238 -280 287 -24 39 -161 197 -199 228
-10 9 -28 25 -40 36 -41 40 -112 83 -145 88 -30 5 -35 1 -74 -52 -71 -96 -324
-481 -363 -551 -10 -19 -22 -37 -25 -40 -3 -3 -17 -25 -31 -50 -49 -88 -72
-125 -80 -128 -5 -2 -6 -7 -3 -12 3 -4 -2 -13 -10 -20 -8 -7 -15 -19 -15 -26
0 -8 -4 -14 -8 -14 -4 0 -13 -12 -19 -27 -7 -16 -28 -55 -48 -88 -20 -33 -42
-74 -50 -92 -8 -17 -19 -35 -25 -38 -6 -4 -8 -10 -5 -15 3 -5 1 -11 -4 -15 -5
-3 -16 -18 -24 -33 -7 -15 -44 -84 -80 -154 -37 -71 -64 -128 -59 -128 4 0 3
-4 -3 -8 -8 -6 -44 -71 -50 -92 -1 -3 -10 -23 -20 -45 -19 -45 -38 -87 -40
-95 -1 -3 -9 -29 -18 -59 -22 -71 -21 -99 4 -166 30 -79 125 -195 223 -270 15
-11 32 -25 39 -31 16 -14 137 -95 167 -113 173 -101 460 -241 493 -241 7 0 17
-4 22 -9 6 -4 42 -20 80 -34 39 -15 84 -32 100 -38 17 -7 32 -13 35 -14 16 -4
88 -28 105 -35 29 -11 98 -32 110 -32 6 0 16 -4 23 -10 6 -6 12 -7 12 -4 0 4
9 2 21 -4 11 -6 28 -13 37 -15 9 -2 89 -23 177 -45 88 -23 167 -44 175 -45 29
-7 225 -47 248 -51 64 -11 141 -24 172 -28 19 -3 49 -7 65 -10 17 -3 50 -7 75
-10 25 -3 63 -8 85 -10 135 -16 241 -20 490 -19 305 1 350 3 565 28 14 2 45 6
70 9 82 9 126 17 250 40 14 3 39 8 55 11 17 3 71 15 120 26 50 12 99 23 110
26 39 9 50 11 50 13 0 1 8 3 18 5 24 5 158 44 177 52 8 4 20 8 25 8 6 1 17 5
25 8 8 3 44 16 80 28 36 12 69 26 75 31 5 4 19 8 31 8 13 0 25 4 28 9 3 5 18
12 32 15 28 7 60 22 222 97 57 27 108 49 113 49 5 0 9 5 9 10 0 6 9 10 20 10
11 0 20 4 20 8 0 4 12 13 28 19 116 49 553 337 617 408 6 6 20 18 32 26 76 53
329 297 443 429 36 41 67 77 71 80 3 3 18 23 35 45 16 22 34 45 40 50 6 6 35
44 65 85 29 41 57 77 61 78 5 2 8 8 8 13 0 5 17 35 39 67 47 70 105 162 114
182 4 8 23 42 42 75 74 128 186 369 239 515 15 41 31 82 35 90 7 13 39 114 47
145 1 6 9 30 17 55 9 25 18 57 21 72 2 14 9 35 15 46 6 11 8 22 5 25 -3 3 -1
14 4 24 6 10 13 32 16 48 3 17 12 62 21 100 8 39 17 79 19 90 1 11 6 34 9 50
3 17 9 48 12 70 3 22 8 54 11 70 11 59 24 160 29 220 16 177 19 252 19 480 0
143 -3 294 -7 335 -3 41 -8 101 -11 133 -3 32 -8 77 -12 100 -8 50 -12 80 -19
127 -3 19 -10 58 -15 85 -6 28 -13 63 -15 78 -3 15 -12 56 -21 90 -8 34 -17
73 -20 87 -3 14 -15 57 -26 95 -12 39 -22 75 -23 80 -1 6 -4 17 -7 25 -4 8
-16 47 -29 85 -25 81 -96 268 -129 341 -51 114 -135 279 -142 282 -4 2 -8 11
-8 20 0 10 -9 28 -20 42 -11 14 -20 30 -20 37 0 6 -3 13 -7 15 -5 2 -19 23
-32 48 -14 25 -46 78 -73 118 -26 41 -48 76 -48 78 0 3 -6 12 -12 19 -27 30
-38 44 -38 50 0 6 -11 20 -37 50 -7 7 -13 18 -13 24 0 6 -9 16 -20 23 -11 7
-20 17 -20 23 0 9 -50 72 -183 230 -64 76 -322 333 -407 405 -41 35 -79 69
-85 75 -14 16 -150 118 -269 202 -55 40 -110 80 -121 88 -10 8 -24 15 -31 15
-6 0 -18 7 -25 16 -7 9 -22 20 -34 25 -11 5 -60 33 -110 63 -82 50 -354 190
-447 230 -21 9 -53 22 -70 30 -65 28 -215 84 -298 111 -47 15 -92 30 -100 33
-24 8 -28 9 -190 53 -85 22 -164 42 -175 44 -16 2 -85 15 -105 20 -33 8 -136
25 -190 31 -25 3 -60 9 -77 14 -20 5 -35 5 -39 -1 -4 -6 -10 -6 -17 -1 -38 31
-711 36 -912 8 -16 -2 -59 -7 -95 -11 -36 -4 -68 -9 -71 -11 -3 -1 -28 -6 -56
-9 -27 -3 -60 -8 -74 -11 -13 -3 -35 -7 -49 -10 -14 -2 -36 -7 -50 -11 -14 -4
-32 -8 -40 -9 -17 -2 -47 -9 -110 -25 -25 -6 -52 -12 -60 -14 -8 -2 -16 -4
-17 -5 -2 -2 -6 -3 -10 -4 -144 -38 -395 -124 -509 -176 -26 -13 -53 -23 -59
-24 -17 -4 -287 -138 -327 -163 -21 -13 -38 -20 -38 -16 0 5 -4 3 -8 -3 -4 -5
-25 -21 -47 -34 -179 -105 -308 -192 -435 -295 -156 -125 -203 -168 -380 -346
-125 -126 -179 -184 -320 -340 -14 -16 -35 -41 -47 -56 -12 -15 -30 -37 -40
-48 -10 -11 -57 -67 -103 -125 -46 -58 -87 -107 -90 -110 -6 -6 -42 -52 -131
-170 -85 -113 -82 -109 -101 -131 -10 -10 -18 -22 -18 -25 0 -3 -19 -31 -43
-62 -73 -96 -257 -362 -257 -371 0 -5 -4 -11 -9 -13 -7 -3 -32 -38 -76 -107
-5 -8 -27 -39 -47 -68 -21 -29 -38 -55 -38 -57 0 -3 -22 -38 -48 -78 -27 -40
-57 -88 -68 -105 -10 -18 -22 -33 -27 -33 -4 0 -5 -4 -2 -10 3 -5 2 -10 -3
-10 -4 0 -16 -15 -25 -32 -19 -37 -22 -43 -88 -143 -25 -38 -49 -80 -53 -91
-4 -12 -15 -29 -26 -39 -11 -10 -20 -22 -20 -26 0 -4 -32 -60 -70 -124 -39
-64 -79 -131 -90 -149 -10 -18 -24 -44 -32 -57 -7 -13 -16 -26 -19 -29 -3 -3
-21 -31 -40 -62 -113 -189 -134 -223 -141 -226 -4 -2 -8 -8 -8 -12 0 -5 -35
-63 -77 -130 -43 -67 -82 -128 -88 -137 -62 -98 -150 -231 -187 -284 -16 -21
-28 -43 -28 -48 0 -5 -4 -11 -8 -13 -5 -1 -26 -30 -47 -63 -22 -33 -48 -69
-57 -79 -10 -11 -18 -24 -18 -28 0 -10 -61 -91 -72 -96 -5 -2 -8 -9 -8 -16 0
-6 -13 -26 -29 -44 -17 -17 -28 -32 -25 -32 3 0 -1 -6 -8 -13 -7 -7 -24 -30
-38 -50 -14 -20 -28 -37 -32 -37 -5 0 -8 -6 -8 -14 0 -8 -4 -16 -8 -18 -4 -1
-30 -32 -57 -68 -27 -36 -62 -81 -79 -101 -17 -19 -44 -53 -61 -74 -16 -21
-35 -43 -40 -49 -6 -6 -42 -47 -79 -91 -121 -141 -368 -380 -491 -477 -33 -26
-67 -53 -75 -60 -14 -12 -35 -26 -174 -116 -27 -18 -64 -37 -83 -44 -18 -7
-33 -15 -33 -19 0 -4 -17 -13 -37 -20 -21 -7 -48 -19 -60 -27 -13 -8 -23 -11
-23 -7 0 4 -6 3 -12 -3 -18 -14 -175 -61 -182 -54 -3 3 -6 1 -6 -4 0 -5 -8
-10 -17 -10 -18 -1 -98 -12 -143 -20 -72 -12 -276 -2 -380 20 -8 1 -33 6 -55
11 -22 4 -44 10 -50 14 -5 3 -19 7 -30 9 -27 4 -177 59 -242 89 -29 13 -55 24
-58 24 -2 0 -32 15 -66 34 -33 19 -65 35 -70 35 -5 0 -9 5 -9 10 0 6 -5 10
-12 10 -11 0 -207 117 -218 129 -3 4 -35 27 -72 51 -38 25 -68 48 -68 53 0 4
-7 7 -15 7 -8 0 -15 4 -15 8 0 5 -16 17 -35 28 -19 10 -35 21 -35 25 0 3 -19
20 -42 37 -138 100 -305 277 -420 447 -47 70 -141 231 -143 245 -1 3 -11 25
-22 50 -52 111 -111 278 -129 369 -3 13 -9 32 -14 41 -5 10 -7 20 -4 23 3 2
-2 34 -10 69 -23 99 -30 187 -30 393 0 215 7 300 39 442 9 37 17 75 18 83 7
36 56 197 74 240 3 8 7 17 8 20 9 26 29 72 45 103 11 22 20 45 20 52 0 7 3 15
8 17 4 2 17 23 29 48 101 205 315 465 502 610 18 14 44 35 59 48 15 13 55 42
90 65 34 23 62 45 62 49 0 4 6 8 13 8 8 0 24 9 37 20 13 11 27 20 31 20 4 0
14 6 21 13 8 6 29 21 48 31 19 10 60 33 90 50 30 17 75 40 100 51 25 11 48 23
51 28 3 5 10 9 15 8 5 0 29 9 54 21 25 11 68 27 95 35 28 8 55 19 60 23 6 4
26 11 45 16 19 4 40 9 45 10 198 54 327 73 500 72 258 -2 477 -52 705 -159 78
-37 238 -126 250 -139 3 -3 32 -23 65 -45 33 -22 62 -42 65 -45 11 -11 88 -68
135 -100 28 -19 55 -39 62 -45 26 -22 39 -31 76 -50 20 -11 37 -23 37 -27 0
-5 6 -8 14 -8 8 0 16 -3 18 -7 4 -11 140 -81 191 -99 60 -22 93 -27 165 -27
134 1 255 94 388 298 21 33 42 62 47 63 4 2 7 8 7 13 0 5 10 26 23 47 39 62
138 246 254 472 32 63 63 122 68 130 5 8 10 17 11 20 0 3 31 68 68 145 114
236 124 263 150 390 7 33 12 80 10 104 -3 48 -30 128 -51 149 -7 7 -16 19 -20
25 -20 32 -158 137 -233 178 -25 13 -47 26 -50 29 -5 6 -51 30 -205 108 -49
25 -93 50 -96 55 -3 5 -9 8 -13 7 -4 -1 -58 23 -120 54 -62 30 -119 56 -127
58 -8 2 -16 6 -19 9 -10 14 -406 173 -454 184 -6 1 -18 5 -26 8 -38 16 -265
85 -300 92 -8 2 -15 4 -15 5 0 1 -11 4 -25 6 -14 3 -43 9 -65 15 -49 13 -72
19 -105 25 -14 3 -32 7 -40 8 -8 2 -26 6 -40 9 -14 4 -36 9 -50 11 -14 3 -36
7 -50 10 -14 2 -59 10 -100 16 -41 6 -88 14 -105 17 -16 2 -46 6 -65 8 -19 2
-62 7 -95 10 -33 4 -80 9 -105 12 -55 5 -597 12 -602 8z"/>
</g>
</svg>
